<?xml version="1.0" encoding="UTF-8" standalone="no"?>
<!-- Created with Inkscape (http://www.inkscape.org/) -->

<svg
   width="48"
   height="48"
   viewBox="0 0 12.7 12.7"
   version="1.1"
   id="svg1"
   inkscape:version="1.4.2 (ebf0e940d0, 2025-05-08)"
   sodipodi:docname="favicon.svg"
   inkscape:export-filename="../favicon.png"
   inkscape:export-xdpi="96"
   inkscape:export-ydpi="96"
   xmlns:inkscape="http://www.inkscape.org/namespaces/inkscape"
   xmlns:sodipodi="http://sodipodi.sourceforge.net/DTD/sodipodi-0.dtd"
   xmlns="http://www.w3.org/2000/svg"
   xmlns:svg="http://www.w3.org/2000/svg">
  <sodipodi:namedview
     id="namedview1"
     pagecolor="#ffffff"
     bordercolor="#000000"
     borderopacity="0.25"
     inkscape:showpageshadow="2"
     inkscape:pageopacity="0.0"
     inkscape:pagecheckerboard="0"
     inkscape:deskcolor="#d1d1d1"
     inkscape:document-units="px"
     inkscape:zoom="0.64658016"
     inkscape:cx="-281.48095"
     inkscape:cy="85.062926"
     inkscape:window-width="1436"
     inkscape:window-height="831"
     inkscape:window-x="0"
     inkscape:window-y="0"
     inkscape:window-maximized="0"
     inkscape:current-layer="layer1" />
  <defs
     id="defs1" />
  <g
     inkscape:label="Layer 1"
     inkscape:groupmode="layer"
     id="layer1">
    <rect
       style="fill:#e8a599;fill-opacity:1;stroke-width:1.32292;stroke-linejoin:round"
       id="rect26"
       width="12.7"
       height="12.7"
       x="1.9073485e-07"
       y="1.9073487e-07"
       rx="4.2333336"
       ry="4.2333336" />
    <path
       id="rect15"
       style="fill:#fcedea;fill-opacity:1;stroke-width:1.32292;stroke-linejoin:round"
       d="M -3.7041365 3.7041365 L -4.7627222 4.7627222 L -4.7627222 13.19779 L -3.7041365 14.256376 L -3.7041365 3.7041365 z "
       transform="rotate(-45)" />
    <path
       id="rect16"
       style="fill:#fcedea;fill-opacity:1;stroke-width:1.32292;stroke-linejoin:round"
       d="M -1.5873305 2.0587062 C -1.9612022 2.2103629 -2.3181038 2.4181349 -2.6455508 2.6813607 L -2.6455508 15.279152 C -2.3181038 15.542378 -1.9612022 15.75015 -1.5873305 15.901806 L -1.5873305 2.0587062 z "
       transform="rotate(-45)" />
    <path
       id="rect17"
       style="fill:#fcedea;fill-opacity:1;stroke-width:1.32292;stroke-linejoin:round"
       d="M 0.52911015 1.7831889 C 0.17783939 1.7389522 -0.17783939 1.7389522 -0.52911015 1.7831889 L -0.52911015 16.177324 C -0.17783939 16.22156 0.17783939 16.22156 0.52911015 16.177324 L 0.52911015 1.7831889 z "
       transform="rotate(-45)" />
    <path
       id="rect10"
       style="fill:#fcedea;fill-opacity:1;stroke-width:1.32292;stroke-linejoin:round"
       d="M 0 8.2320558 L 0 8.4666668 C 2.9514321e-16 9.0189523 0.1079692 9.5444038 0.29868978 10.027295 L 2.6727051 12.40131 C 3.1555964 12.592031 3.6810479 12.7 4.2333334 12.7 L 4.4679444 12.7 L 0 8.2320558 z " />
    <path
       id="rect18"
       style="fill:#fcedea;fill-opacity:1;stroke-width:1.32292;stroke-linejoin:round"
       d="M 2.6455508 2.6813607 C 2.3181038 2.4181349 1.9612022 2.2103629 1.5873305 2.0587062 L 1.5873305 15.901806 C 1.9612022 15.75015 2.3181038 15.542378 2.6455508 15.279152 L 2.6455508 2.6813607 z "
       transform="rotate(-45)" />
    <path
       id="rect19"
       style="fill:#fcedea;fill-opacity:1;stroke-width:1.32292;stroke-linejoin:round"
       d="M 3.7041365 3.7041365 L 3.7041365 14.256376 L 4.7627222 13.19779 L 4.7627222 4.7627222 L 3.7041365 3.7041365 z "
       transform="rotate(-45)" />
    <path
       id="rect20"
       style="fill:#fcedea;fill-opacity:1;stroke-width:1.32292;stroke-linejoin:round"
       d="M 5.8209425 5.8209425 L 5.8209425 12.13957 L 5.9868375 11.973675 C 6.3751063 11.585406 6.672704 11.141661 6.8791628 10.668439 L 6.8791628 7.3015739 C 6.6725642 6.8251963 6.3774076 6.3774076 5.9868375 5.9868375 L 5.8209425 5.8209425 z "
       transform="rotate(-45)" />
    <g
       id="g10"
       transform="matrix(1.7320508,0,0,1.3846154,-6.2341719,-1.5453892)"
       style="fill:#008000">
      <path
         sodipodi:type="star"
         style="fill:#008000;fill-opacity:1;stroke-width:1.32292;stroke-linejoin:round"
         id="path7"
         inkscape:flatsided="true"
         sodipodi:sides="3"
         sodipodi:cx="3.4948764"
         sodipodi:cy="1.9300063"
         sodipodi:r1="5.2487335"
         sodipodi:r2="2.6243668"
         sodipodi:arg1="0.52359878"
         sodipodi:arg2="1.5707963"
         inkscape:rounded="0"
         inkscape:randomized="0"
         d="m 8.0404129,4.554373 -9.0910731,0 4.5455366,-7.8731003 z"
         inkscape:transform-center-y="-0.35277777"
         transform="matrix(0.26884793,0,0,0.26884793,6.3258848,3.1548752)" />
      <path
         sodipodi:type="star"
         style="fill:#008000;fill-opacity:1;stroke-width:1.32292;stroke-linejoin:round"
         id="path8"
         inkscape:flatsided="true"
         sodipodi:sides="3"
         sodipodi:cx="3.4948764"
         sodipodi:cy="1.9300063"
         sodipodi:r1="5.2487335"
         sodipodi:r2="2.6243668"
         sodipodi:arg1="0.52359878"
         sodipodi:arg2="1.5707963"
         inkscape:rounded="0"
         inkscape:randomized="0"
         d="m 8.0404129,4.554373 -9.0910731,0 4.5455366,-7.8731003 z"
         inkscape:transform-center-y="-0.52916661"
         transform="matrix(0.40327189,0,0,0.40327189,5.8560897,4.9239083)" />
      <path
         sodipodi:type="star"
         style="fill:#008000;fill-opacity:1;stroke-width:1.32292;stroke-linejoin:round"
         id="path9"
         inkscape:flatsided="true"
         sodipodi:sides="3"
         sodipodi:cx="3.4948764"
         sodipodi:cy="1.9300063"
         sodipodi:r1="5.2487335"
         sodipodi:r2="2.6243668"
         sodipodi:arg1="0.52359878"
         sodipodi:arg2="1.5707963"
         inkscape:rounded="0"
         inkscape:randomized="0"
         d="m 8.0404129,4.554373 -9.0910731,0 4.5455366,-7.8731003 z"
         inkscape:transform-center-y="-0.7055555"
         transform="matrix(0.53769585,0,0,0.53769585,5.3862946,6.6929414)" />
    </g>
  </g>
</svg>
